<svg xmlns="http://www.w3.org/2000/svg" width="200" height="60"><g fill="none" fill-rule="evenodd"><path d="M0 0h200.2v59.701H0z"/><g fill-rule="nonzero"><path fill="#FFF" d="M88.711 37.967v4.164h-1.438v-3.764c0-.96-.64-1.601-1.599-1.601-1.198 0-1.918.88-1.918 2.082v3.283h-1.438v-9.45h1.438v4.005c.48-.961 1.36-1.362 2.478-1.362 1.518.08 2.477 1.041 2.477 2.643zm9.031.801c0 2.002-1.438 3.443-3.516 3.443-2.078 0-3.517-1.361-3.517-3.443 0-2.002 1.439-3.444 3.517-3.444 2.078.08 3.516 1.442 3.516 3.444zm-5.594 0c0 1.281.88 2.162 2.078 2.162 1.199 0 2.078-.881 2.078-2.162 0-1.282-.88-2.163-2.078-2.163-1.199 0-2.078.961-2.078 2.163zm12.148-2.723l-.56 1.04c-.559-.32-1.278-.56-1.918-.56-.56 0-.959.16-.959.641 0 1.281 3.597.56 3.597 2.963 0 1.361-1.199 2.002-2.558 2.002a4.78 4.78 0 01-2.717-.88l.48-1.042c.639.56 1.438.801 2.237.801.64 0 1.12-.24 1.12-.72 0-1.362-3.517-.641-3.517-3.044 0-1.361 1.199-1.922 2.477-1.922.8.08 1.599.32 2.318.72zm6.074 5.685c-.48.321-1.04.481-1.678.481-1.04 0-1.919-.56-1.919-1.922v-3.523h-.959v-1.122h.96v-1.841h1.438v1.841h1.998v1.122h-1.998v3.203c0 .72.24.88.72.88.319 0 .719-.08.958-.32l.48 1.202zm3.516-8.328c0 .48-.4.801-.879.801-.48 0-.799-.4-.799-.88 0-.481.4-.802.88-.802.399 0 .798.4.798.881zm-1.518 8.81v-6.808h1.438v6.807h-1.438zm10.709-4.245v4.164h-1.438v-3.764c0-.96-.64-1.601-1.599-1.601-1.119 0-1.838.8-1.918 1.842v3.603h-1.438v-6.807h1.438v1.362c.48-.961 1.359-1.362 2.478-1.362 1.518 0 2.477.961 2.477 2.563zm8.711 3.523c0 1.922-1.358 3.124-3.516 3.124-.96 0-1.998-.32-2.797-.881l.64-1.041c.639.48 1.358.72 2.077.72 1.279 0 2.078-.72 2.078-1.922v-.88c-.48.72-1.199 1.12-2.238 1.12-1.838 0-3.037-1.28-3.037-3.283 0-1.922 1.2-3.203 2.957-3.203 1.04 0 1.838.4 2.238 1.121v-1.121h1.439l.16 6.246zm-1.438-2.882c0-1.202-.8-2.083-1.918-2.083-1.12 0-1.918.881-1.918 2.083 0 1.2.799 2.082 1.918 2.082 1.119 0 1.918-.881 1.918-2.082zm12.388-2.563l-.56 1.04c-.56-.32-1.279-.56-1.918-.56-.56 0-.959.16-.959.641 0 1.281 3.596.56 3.596 2.963 0 1.361-1.198 2.002-2.557 2.002-.96 0-1.918-.32-2.717-.88l.48-1.042c.639.56 1.438.801 2.237.801.64 0 1.119-.24 1.119-.72 0-1.362-3.517-.641-3.517-3.044 0-1.361 1.2-1.922 2.478-1.922.8.08 1.598.32 2.318.72zm8.631 2.723c0 2.002-1.439 3.443-3.517 3.443-2.077 0-3.516-1.361-3.516-3.443 0-2.002 1.439-3.444 3.516-3.444 2.158.08 3.517 1.442 3.517 3.444zm-5.515 0c0 1.281.88 2.162 2.078 2.162 1.2 0 2.078-.881 2.078-2.162 0-1.282-.879-2.163-2.078-2.163-1.198 0-2.078.961-2.078 2.163zm7.833 3.443v-9.53h1.438v9.45zm10.469 0h-1.438V40.93c-.48.96-1.28 1.361-2.398 1.361-1.518 0-2.478-.96-2.478-2.562v-4.165h1.439v3.764c0 .961.56 1.602 1.598 1.602 1.2 0 1.839-.961 1.839-2.082v-3.284h1.438v6.647zm6.634-.481c-.48.321-1.04.481-1.679.481-.959 0-1.918-.56-1.918-1.922v-3.523h-.959v-1.122h.96v-1.841h1.438v1.841h1.998v1.122h-1.998v3.203c0 .72.24.88.719.88.32 0 .72-.16.959-.32l.48 1.202zm3.516-8.328c0 .48-.4.801-.88.801-.479 0-.798-.4-.798-.88 0-.481.4-.802.879-.802.4 0 .799.4.799.881zm-1.518 8.81v-6.808h1.438v6.807h-1.438zm10.629-3.444c0 2.002-1.439 3.443-3.517 3.443-2.077 0-3.516-1.361-3.516-3.443 0-2.002 1.439-3.444 3.516-3.444 2.158.08 3.517 1.442 3.517 3.444zm-5.594 0c0 1.281.879 2.162 2.077 2.162 1.2 0 2.078-.881 2.078-2.162 0-1.282-.879-2.163-2.078-2.163-1.118 0-2.077.961-2.077 2.163zm14.225-.801v4.164h-1.438v-3.764c0-.96-.64-1.601-1.599-1.601-1.119 0-1.838.8-1.918 1.842v3.603h-1.438v-6.807h1.438v1.362c.48-.961 1.359-1.362 2.478-1.362 1.598 0 2.477.961 2.477 2.563zm7.033-1.922l-.56 1.04c-.559-.32-1.278-.56-1.917-.56-.56 0-.96.16-.96.641 0 1.281 3.597.56 3.597 2.963 0 1.361-1.199 2.002-2.557 2.002-.96 0-1.918-.32-2.718-.88l.48-1.042c.64.56 1.439.801 2.238.801.64 0 1.119-.24 1.119-.72 0-1.362-3.517-.641-3.517-3.044 0-1.361 1.199-1.922 2.478-1.922a6.02 6.02 0 012.317.72zM81.998 28.117V15.464h3.197v12.573h-3.197zm15.984 0l-5.834-7.768v7.768h-2.957V15.464h2.797l5.834 7.768v-7.768h2.957v12.573h-2.797zm12.787-10.011v10.011h-3.196V18.106h-3.677v-2.642h10.71v2.562h-3.837zm12.308 6.407H120.6v3.524h-3.117V15.464h5.674c3.277 0 5.275 1.601 5.275 4.404 0 1.922-.8 3.284-2.238 4.004l2.637 4.085h-3.596l-2.158-3.444zm-.08-2.483c1.359 0 2.158-.72 2.158-2.002 0-1.281-.8-1.922-2.158-1.922H120.6v3.924h2.397zm20.859-.24c0 3.604-2.877 6.487-6.793 6.487-3.836 0-6.793-2.723-6.793-6.487 0-3.764 2.877-6.406 6.793-6.406 3.836 0 6.793 2.802 6.793 6.406zm-10.39 0c0 2.082 1.6 3.684 3.517 3.684 1.918 0 3.437-1.602 3.437-3.684s-1.519-3.684-3.437-3.684c-1.838 0-3.436 1.602-3.516 3.684zm22.938-5.045l-1.199 2.483c-1.279-.801-2.957-1.282-3.996-1.282-.8 0-1.359.32-1.359.881 0 2.162 6.634.961 6.634 5.526 0 2.482-2.238 3.844-5.035 3.844-2.078 0-4.076-.721-5.754-2.002l1.198-2.403c1.28 1.121 3.197 1.842 4.556 1.842.959 0 1.598-.4 1.598-1.121 0-2.242-6.633-.88-6.633-5.366 0-2.322 1.998-3.763 5.035-3.763 1.758-.08 3.516.4 4.955 1.361zm6.553 1.281v2.483h5.994v2.482h-5.994v2.563h6.874v2.483h-9.991V15.464h9.831v2.482h-6.714zm16.224 6.487h-2.557v3.524h-3.117V15.464h5.674c3.277 0 5.275 1.601 5.275 4.404 0 1.922-.8 3.284-2.238 4.004l2.638 4.085h-3.597l-2.078-3.444zm-.16-2.483c1.359 0 2.158-.72 2.158-2.002 0-1.281-.799-1.922-2.158-1.922h-2.397v3.924h2.397zm11.988 6.087l-4.875-12.573h3.357l3.197 9.209 3.197-9.209h3.276l-4.955 12.573z"/><path fill="#9000ED" d="M16.064 26.915V12.26H.48v35.637h15.584V26.915zM3.117 17.946l2.877-2.883h2.318L3.037 20.35v-2.404h.08zm9.11-3.043h1.12v1.281l-9.111 9.21h-1.12v-1.281l9.112-9.21zm1.2 7.528l-3.037 2.963H7.992l5.355-5.366v2.323h.08v.08zm45.234 9.93H21.26v15.616h37.323c4.235-.24 7.672-3.844 7.432-8.168-.08-4.004-3.357-7.288-7.353-7.448zm-13.106 9.69a1.81 1.81 0 01-1.839-1.842c0-1.04.8-1.842 1.839-1.842 1.038 0 1.838.801 1.838 1.842.08.961-.8 1.842-1.838 1.842zm6.633 0a1.81 1.81 0 01-1.838-1.842c0-1.04.799-1.842 1.838-1.842a1.81 1.81 0 011.838 1.842c0 .961-.8 1.842-1.838 1.842zm6.553 0a1.81 1.81 0 01-1.838-1.842c0-1.04.8-1.842 1.838-1.842a1.81 1.81 0 011.839 1.842c0 .961-.8 1.842-1.839 1.842zM28.212 27.716h37.323V12.1H28.212c-4.236-.24-7.912 3.123-8.152 7.448-.24 4.244 3.117 8.008 7.433 8.168h.719zm24.695-2.562l10.23-10.25v2.402l-7.832 7.928-2.398-.08zm6.234 0l3.996-4.004v2.322l-1.598 1.602-2.398.08zm.48-10.571l-10.55 10.57h-2.318l10.55-10.57h2.317zm-6.234 0l-10.55 10.57H40.44l10.55-10.57h2.397zm-6.234 0l-10.55 10.57h-2.317l10.47-10.57h2.397zm-6.234 0l-10.63 10.57h-2.397l10.63-10.57h2.397zm-6.234 0l-9.51 9.53c-.48-.32-.88-.721-1.199-1.202l8.312-8.328h2.397zm-11.668 5.445v-.16c0-2.883 2.318-5.285 5.275-5.285h.16l-5.435 5.445z"/></g></g></svg>